<svg xmlns="http://www.w3.org/2000/svg" width="16" height="16" viewBox="0 0 16 16">
  <circle cx="8" cy="8" r="7" fill="#6e44ff"/>
  <path d="M8,4 C9.1045695,4 10,4.8954305 10,6 C10,7.1045695 9.1045695,8 8,8 C6.8954305,8 6,7.1045695 6,6 C6,4.8954305 6.8954305,4 8,4 Z" fill="white"/>
  <path d="M5,9 C5,9.55228475 5.44771525,10 6,10 C6.55228475,10 7,9.55228475 7,9 C7,8.44771525 6.55228475,8 6,8 C5.44771525,8 5,8.44771525 5,9 Z" fill="white"/>
  <path d="M9,9 C9,9.55228475 9.44771525,10 10,10 C10.5522847,10 11,9.55228475 11,9 C11,8.44771525 10.5522847,8 10,8 C9.44771525,8 9,8.44771525 9,9 Z" fill="white"/>
  <path d="M5,11 C5,11.5522847 5.44771525,12 6,12 C6.55228475,12 7,11.5522847 7,11 C7,10.4477153 6.55228475,10 6,10 C5.44771525,10 5,10.4477153 5,11 Z" fill="white"/>
  <path d="M9,11 C9,11.5522847 9.44771525,12 10,12 C10.5522847,12 11,11.5522847 11,11 C11,10.4477153 10.5522847,10 10,10 C9.44771525,10 9,10.4477153 9,11 Z" fill="white"/>
  <path d="M6,13 C6,13.5522847 6.44771525,14 7,14 C7.55228475,14 8,13.5522847 8,13 C8,12.4477153 7.55228475,12 7,12 C6.44771525,12 6,12.4477153 6,13 Z" fill="white"/>
  <path d="M9,13 C9,13.5522847 9.44771525,14 10,14 C10.5522847,14 11,13.5522847 11,13 C11,12.4477153 10.5522847,12 10,12 C9.44771525,12 9,12.4477153 9,13 Z" fill="white"/>
</svg>